<svg width="39" height="39" viewBox="0 0 39 39" fill="none" xmlns="http://www.w3.org/2000/svg">
<circle cx="19.5" cy="19.5" r="19.5" fill="white"/>
<path fill-rule="evenodd" clip-rule="evenodd" d="M27.4357 11.6698C28.3288 12.5628 28.3288 14.0108 27.4357 14.9038L22.8963 19.4433L27.6547 24.2017C28.5478 25.0948 28.5478 26.5427 27.6547 27.4357C26.7617 28.3288 25.3138 28.3288 24.4207 27.4357L19.6623 22.6773L14.9038 27.4357C14.0108 28.3288 12.5628 28.3288 11.6698 27.4357C10.7767 26.5427 10.7767 25.0948 11.6698 24.2017L16.4282 19.4433L11.8888 14.9038C10.9957 14.0108 10.9957 12.5628 11.8888 11.6698C12.7818 10.7767 14.2298 10.7767 15.1228 11.6698L19.6623 16.2092L24.2017 11.6698C25.0948 10.7767 26.5427 10.7767 27.4357 11.6698Z" fill="#30B7E7"/>
</svg>
