<svg width="306" height="137" viewBox="0 0 306 137" fill="none" xmlns="http://www.w3.org/2000/svg">
<path d="M284.848 61.3727C284.279 61.3727 283.71 61.3727 283.141 61.4608C279.958 56.9237 275.759 53.1899 270.877 50.5558C265.995 47.9217 260.565 46.4599 255.018 46.2865C252.138 40.1439 247.563 34.9477 241.83 31.3066C236.097 27.6655 229.443 25.7303 222.648 25.7278C221.403 25.7285 220.159 25.7939 218.92 25.9236C215.101 18.1458 209.173 11.5932 201.809 7.01062C194.444 2.428 185.939 -0.00089012 177.261 2.447e-07C168.071 -0.000229883 159.089 2.72306 151.452 7.82454C143.815 12.926 137.869 20.1759 134.366 28.6549C131.284 29.3756 128.315 30.5084 125.537 32.0227C122.196 27.79 117.936 24.3688 113.079 22.0169C108.221 19.6649 102.892 18.4433 97.4931 18.4441C89.2799 18.446 81.3177 21.2692 74.9443 26.4393C68.5708 31.6093 64.1745 38.8111 62.4941 46.8347C58.5488 46.1088 54.5085 46.0591 50.5465 46.6879C45.6772 47.4721 41.0241 49.2571 36.8822 51.9298C32.7402 54.6026 29.1996 58.1048 26.4847 62.2146C24.5766 61.6352 22.5936 61.3384 20.5992 61.3335C15.1359 61.3335 9.89646 63.4995 6.03336 67.355C2.17027 71.2105 0 76.4397 0 81.8922C0 87.3447 2.17027 92.5739 6.03336 96.4294C9.89646 100.285 15.1359 102.451 20.5992 102.451C22.5927 102.443 24.5748 102.15 26.4847 101.58C30.2732 107.322 35.6443 111.85 41.9512 114.617C48.2581 117.384 55.2319 118.272 62.033 117.175C66.2041 116.502 70.2226 115.097 73.9021 113.024C77.9736 120.042 83.8226 125.869 90.8626 129.919C97.9026 133.969 105.886 136.1 114.012 136.099C121.245 136.104 128.379 134.418 134.841 131.176C141.304 127.934 146.916 123.226 151.228 117.429C154.073 118.857 157.214 119.601 160.399 119.603C163.787 119.606 167.124 118.772 170.11 117.175C178.496 124.342 189.174 128.276 200.214 128.267C206.843 128.271 213.395 126.854 219.426 124.111C225.458 121.368 230.828 117.363 235.174 112.368C240.797 115.828 247.275 117.655 253.88 117.645C259.624 117.641 265.281 116.253 270.372 113.599C275.463 110.945 279.837 107.104 283.121 102.402C283.69 102.451 284.259 102.49 284.828 102.49C290.291 102.49 295.531 100.324 299.394 96.4686C303.257 92.6131 305.427 87.3839 305.427 81.9314C305.427 76.4823 303.26 71.256 299.401 67.4011C295.542 63.5461 290.307 61.3779 284.848 61.3727Z" fill="#E3B7FF"/>
</svg>
