<svg width="235" height="105" viewBox="0 0 235 105" fill="none" xmlns="http://www.w3.org/2000/svg">
<path d="M219.044 46.9016C218.607 46.9016 218.169 46.9016 217.732 46.969C215.284 43.5017 212.055 40.6483 208.301 38.6352C204.547 36.6222 200.371 35.5051 196.106 35.3726C193.891 30.6784 190.373 26.7074 185.964 23.9248C181.556 21.1423 176.439 19.6634 171.213 19.6614C170.256 19.662 169.299 19.7119 168.347 19.8111C165.41 13.8672 160.851 8.85968 155.188 5.35759C149.525 1.8555 142.985 -0.000680239 136.311 1.87002e-07C129.245 -0.000175679 122.337 2.08099 116.465 5.9796C110.592 9.87821 106.019 15.4187 103.325 21.8984C100.956 22.4491 98.6724 23.3148 96.5366 24.4721C93.9672 21.2374 90.6915 18.6229 86.9561 16.8255C83.2206 15.0281 79.1227 14.0946 74.9709 14.0952C68.6551 14.0967 62.5323 16.2542 57.6311 20.2052C52.73 24.1562 49.3494 29.6599 48.0571 35.7916C45.0233 35.2368 41.9163 35.1989 38.8696 35.6794C35.1252 36.2787 31.547 37.6428 28.3619 39.6853C25.1768 41.7279 22.4541 44.4043 20.3664 47.5451C18.8991 47.1023 17.3742 46.8755 15.8405 46.8717C11.6393 46.8717 7.61025 48.527 4.63958 51.4734C1.66891 54.4198 0 58.416 0 62.5829C0 66.7498 1.66891 70.746 4.63958 73.6924C7.61025 76.6388 11.6393 78.2941 15.8405 78.2941C17.3735 78.2881 18.8977 78.0639 20.3664 77.6282C23.2797 82.017 27.41 85.4769 32.2599 87.5913C37.1099 89.7058 42.4726 90.3847 47.7026 89.5463C50.9101 89.0322 54.0003 87.9582 56.8297 86.3741C59.9607 91.7376 64.4585 96.1902 69.8722 99.2853C75.2858 102.38 81.4248 104.009 87.6735 104.008C93.2357 104.012 98.7215 102.723 103.691 100.246C108.661 97.7683 112.977 94.1705 116.292 89.7408C118.48 90.8318 120.896 91.4006 123.345 91.4017C125.95 91.4045 128.516 90.767 130.812 89.5463C137.261 95.0233 145.473 98.0302 153.962 98.0229C159.059 98.0262 164.098 96.943 168.736 94.8467C173.374 92.7505 177.504 89.6901 180.846 85.8729C185.17 88.5169 190.151 89.9133 195.231 89.9054C199.647 89.9024 203.998 88.8418 207.913 86.8137C211.827 84.7857 215.191 81.8502 217.717 78.2567C218.154 78.2941 218.592 78.324 219.029 78.324C223.23 78.324 227.259 76.6687 230.23 73.7223C233.201 70.7759 234.87 66.7797 234.87 62.6128C234.87 58.4486 233.203 54.4546 230.235 51.5086C227.268 48.5626 223.243 46.9056 219.044 46.9016Z" fill="#C7E1F4"/>
</svg>
