<svg width="218" height="97" viewBox="0 0 218 97" fill="none" xmlns="http://www.w3.org/2000/svg">
<path d="M203.311 43.7414C202.905 43.7414 202.499 43.7414 202.093 43.8042C199.821 40.5705 196.824 37.9094 193.339 36.032C189.855 34.1546 185.979 33.1128 182.02 32.9892C179.964 28.6112 176.699 24.9078 172.607 22.3127C168.515 19.7177 163.766 18.3384 158.916 18.3366C158.027 18.3372 157.139 18.3837 156.255 18.4762C153.53 12.9329 149.298 8.26272 144.042 4.9966C138.785 1.73048 132.715 -0.000634405 126.521 1.74402e-07C119.962 -0.000163842 113.55 1.94077 108.1 5.57669C102.649 9.21261 98.4043 14.3797 95.9041 20.4229C93.7048 20.9365 91.5852 21.7439 89.6029 22.8231C87.218 19.8064 84.1776 17.3681 80.7104 15.6918C77.2433 14.0155 73.4397 13.1449 69.5861 13.1454C63.7239 13.1468 58.0409 15.159 53.4918 18.8437C48.9427 22.5285 45.8049 27.6614 44.6054 33.3799C41.7895 32.8626 38.9057 32.8272 36.0778 33.2753C32.6023 33.8342 29.2812 35.1064 26.3248 37.0113C23.3685 38.9162 20.8413 41.4123 18.9036 44.3415C17.5416 43.9285 16.1263 43.717 14.7028 43.7135C10.8034 43.7135 7.06364 45.2572 4.30634 48.0051C1.54904 50.753 0 54.48 0 58.3661C0 62.2522 1.54904 65.9791 4.30634 68.727C7.06364 71.4749 10.8034 73.0186 14.7028 73.0186C16.1256 73.0131 17.5403 72.8039 18.9036 72.3976C21.6076 76.4906 25.4413 79.7174 29.9429 81.6894C34.4444 83.6614 39.422 84.2946 44.2763 83.5126C47.2534 83.0332 50.1217 82.0316 52.7479 80.5542C55.654 85.5563 59.8288 89.7089 64.8536 92.5955C69.8784 95.482 75.5765 97.0009 81.3763 97C86.539 97.0036 91.6308 95.8019 96.2436 93.4913C100.856 91.1806 104.862 87.8253 107.939 83.6941C109.971 84.7116 112.212 85.242 114.486 85.243C116.904 85.2456 119.285 84.6511 121.417 83.5126C127.402 88.6206 135.024 91.4249 142.904 91.4181C147.635 91.4211 152.311 90.411 156.616 88.456C160.921 86.501 164.755 83.6468 167.857 80.0867C171.87 82.5526 176.493 83.8549 181.208 83.8476C185.307 83.8447 189.346 82.8556 192.979 80.9642C196.613 79.0728 199.735 76.3351 202.079 72.9837C202.485 73.0186 202.891 73.0465 203.297 73.0465C207.197 73.0465 210.936 71.5028 213.694 68.7549C216.451 66.007 218 62.2801 218 58.394C218 54.5103 216.453 50.7855 213.699 48.038C210.944 45.2905 207.208 43.7451 203.311 43.7414Z" fill="#F5E4FF"/>
</svg>
