<svg width="667" height="277" viewBox="0 0 667 277" fill="none" xmlns="http://www.w3.org/2000/svg">
<path d="M631.458 148.401C630.462 148.401 629.483 148.401 628.521 148.552C623.039 140.745 615.81 134.32 607.408 129.786C599.005 125.252 589.66 122.734 580.113 122.431C575.157 111.856 567.283 102.91 557.414 96.6424C547.546 90.3744 536.092 87.0441 524.395 87.0417C522.252 87.0374 520.11 87.1443 517.979 87.3619C511.405 73.9733 501.2 62.6938 488.524 54.8053C475.848 46.9168 461.209 42.7357 446.271 42.7373C432.948 42.7198 419.833 46.0399 408.129 52.3936C402.515 37.0341 392.305 23.769 378.883 14.3968C365.461 5.02457 349.476 -0.00150579 333.095 2.03942e-06C319.387 -0.0030937 305.91 3.51824 293.963 10.2245C282.015 16.9308 272 26.5959 264.882 38.2883C262.484 38.0692 260.053 37.9344 257.605 37.9344C243.552 37.937 229.749 41.6444 217.593 48.6815C205.437 55.7186 195.359 65.8356 188.379 78.009C181.803 75.6807 174.876 74.4951 167.898 74.5037C153.761 74.5071 140.056 79.3668 129.085 88.2665C118.115 97.1662 110.547 109.563 107.655 123.375C100.856 122.175 93.9034 122.129 87.0896 123.24C78.7094 124.594 70.7017 127.669 63.5727 132.269C56.4437 136.87 50.3484 142.896 45.6722 149.968C42.3607 148.963 38.9185 148.451 35.4572 148.451C26.0533 148.451 17.0347 152.18 10.3852 158.817C3.73565 165.453 0 174.455 0 183.841C0 193.227 3.73565 202.228 10.3852 208.865C17.0347 215.502 26.0533 219.231 35.4572 219.231C38.9169 219.225 42.3575 218.72 45.6722 217.731C52.2131 227.59 61.4655 235.356 72.3192 240.097C83.1728 244.838 95.1666 246.352 106.861 244.458C113.543 243.365 120 241.184 125.974 238.004C133.441 246.062 142.498 252.491 152.575 256.885C162.653 261.279 173.532 263.543 184.529 263.535C192.341 263.541 200.111 262.405 207.593 260.165C215.075 262.406 222.846 263.542 230.657 263.535C247.111 263.522 263.154 258.404 276.566 248.891C284.048 257.694 293.361 264.766 303.858 269.614C314.355 274.463 325.783 276.971 337.35 276.966C349.815 276.99 362.113 274.097 373.256 268.519C384.398 262.94 394.075 254.833 401.51 244.846C406.413 247.288 411.817 248.563 417.297 248.57C423.129 248.577 428.872 247.141 434.013 244.391C448.442 256.736 466.826 263.51 485.831 263.485C497.239 263.495 508.516 261.058 518.898 256.34C529.281 251.621 538.525 244.73 546.007 236.133C555.69 242.076 566.838 245.216 578.205 245.2C588.091 245.206 597.832 242.83 606.601 238.274C615.37 233.717 622.907 227.115 628.571 219.028C629.534 219.113 630.513 219.18 631.509 219.18C640.913 219.18 649.932 215.451 656.581 208.815C663.231 202.178 666.966 193.176 666.966 183.79C666.966 179.139 666.047 174.533 664.262 170.236C662.477 165.939 659.861 162.035 656.563 158.748C653.265 155.461 649.351 152.856 645.043 151.08C640.735 149.305 636.119 148.394 631.458 148.401Z" fill="#BD77EA"/>
</svg>
