<svg width="426" height="191" viewBox="0 0 426 191" fill="none" xmlns="http://www.w3.org/2000/svg">
<path d="M397.194 85.6852C396.401 85.6852 395.608 85.6852 394.814 85.8082C390.376 79.4738 384.52 74.2608 377.713 70.5832C370.906 66.9056 363.334 64.8648 355.6 64.6227C351.583 56.0467 345.204 48.792 337.21 43.7085C329.216 38.625 319.938 35.9233 310.462 35.9197C308.726 35.9207 306.991 36.012 305.265 36.1931C299.939 25.3342 291.673 16.1859 281.404 9.78785C271.135 3.38984 259.276 -0.00124274 247.174 3.41637e-07C234.36 -0.000320951 221.835 3.80179 211.186 10.9242C200.537 18.0466 192.245 28.1685 187.361 40.0065C183.064 41.0126 178.923 42.5942 175.05 44.7083C170.391 38.7988 164.452 34.0225 157.678 30.7388C150.904 27.455 143.474 25.7496 135.945 25.7507C124.493 25.7534 113.39 29.695 104.503 36.9131C95.6158 44.1312 89.4855 54.186 87.1423 65.3881C81.641 64.3746 76.0071 64.3053 70.4825 65.1831C63.6927 66.278 57.2044 68.7701 51.4288 72.5016C45.6532 76.2332 40.7162 81.1228 36.9305 86.8607C34.2698 86.0518 31.5048 85.6374 28.7237 85.6305C21.1057 85.6305 13.7997 88.6546 8.41298 94.0375C3.02624 99.4203 0 106.721 0 114.334C0 121.946 3.02624 129.247 8.41298 134.63C13.7997 140.012 21.1057 143.036 28.7237 143.036C31.5035 143.026 34.2673 142.616 36.9305 141.82C42.2132 149.838 49.7027 156.159 58.4971 160.022C67.2915 163.885 77.0159 165.125 86.4994 163.593C92.3156 162.654 97.9191 160.692 103.05 157.798C108.727 167.597 116.883 175.731 126.7 181.386C136.516 187.04 147.648 190.016 158.979 190.014C169.065 190.021 179.012 187.667 188.024 183.14C197.036 178.614 204.861 172.041 210.873 163.949C214.841 165.942 219.221 166.981 223.662 166.983C228.387 166.988 233.039 165.823 237.203 163.593C248.896 173.599 263.786 179.093 279.181 179.079C288.423 179.085 297.559 177.106 305.97 173.277C314.38 169.447 321.869 163.856 327.929 156.882C335.77 161.713 344.802 164.264 354.013 164.249C362.022 164.244 369.911 162.306 377.009 158.601C384.108 154.896 390.207 149.533 394.787 142.968C395.58 143.036 396.373 143.091 397.167 143.091C404.785 143.091 412.091 140.067 417.478 134.684C422.864 129.301 425.891 122.001 425.891 114.388C425.891 106.78 422.868 99.4838 417.487 94.1018C412.106 88.7197 404.807 85.6925 397.194 85.6852Z" fill="#BD77EA"/>
</svg>
