<svg width="343" height="153" viewBox="0 0 343 153" fill="none" xmlns="http://www.w3.org/2000/svg">
<path d="M319.081 68.5927C318.444 68.5927 317.807 68.5927 317.169 68.6912C313.604 63.6203 308.9 59.4472 303.431 56.5033C297.963 53.5593 291.88 51.9255 285.667 51.7317C282.44 44.8665 277.316 39.059 270.894 34.9895C264.472 30.9201 257.018 28.7573 249.406 28.7544C248.012 28.7553 246.618 28.8283 245.231 28.9733C240.953 20.2805 234.312 12.9571 226.062 7.83537C217.813 2.71363 208.286 -0.000994836 198.565 2.73487e-07C188.271 -0.000256927 178.208 3.0434 169.654 8.74504C161.099 14.4467 154.438 22.5495 150.514 32.026C147.062 32.8314 143.736 34.0975 140.625 35.7899C136.882 31.0592 132.11 27.2356 126.669 24.607C121.227 21.9783 115.258 20.613 109.21 20.6139C100.01 20.6161 91.0907 23.7714 83.9512 29.5496C76.8118 35.3279 71.8872 43.377 70.0047 52.3444C65.5853 51.5331 61.0594 51.4776 56.6213 52.1803C51.1668 53.0568 45.9545 55.0518 41.3147 58.039C36.675 61.0262 32.7089 64.9404 29.6677 69.5337C27.5302 68.8862 25.309 68.5544 23.0749 68.5489C16.955 68.5489 11.0858 70.9697 6.75847 75.2788C2.43109 79.5879 0 85.4323 0 91.5262C0 97.6202 2.43109 103.465 6.75847 107.774C11.0858 112.083 16.955 114.504 23.0749 114.504C25.3079 114.495 27.5282 114.167 29.6677 113.53C33.9115 119.948 39.9281 125.008 46.993 128.101C54.0579 131.193 61.8698 132.186 69.4883 130.96C74.1606 130.208 78.6622 128.637 82.7838 126.32C87.3446 134.164 93.8967 140.676 101.783 145.203C109.669 149.729 118.611 152.111 127.714 152.11C135.816 152.115 143.808 150.231 151.047 146.608C158.286 142.984 164.573 137.722 169.402 131.244C172.59 132.84 176.108 133.671 179.676 133.673C183.472 133.677 187.209 132.745 190.554 130.96C199.948 138.97 211.91 143.367 224.277 143.356C231.702 143.361 239.041 141.777 245.797 138.711C252.554 135.646 258.57 131.17 263.438 125.587C269.736 129.454 276.993 131.496 284.392 131.485C290.826 131.48 297.163 129.929 302.866 126.963C308.569 123.997 313.468 119.704 317.147 114.449C317.785 114.503 318.422 114.547 319.059 114.547C325.179 114.547 331.048 112.126 335.376 107.817C339.703 103.508 342.134 97.6639 342.134 91.57C342.134 85.4798 339.706 79.6387 335.383 75.3303C331.061 71.0219 325.197 68.5985 319.081 68.5927Z" fill="#E3B7FF"/>
</svg>
