<svg width="273" height="160" viewBox="0 0 273 160" fill="none" xmlns="http://www.w3.org/2000/svg">
<path d="M244.524 58.0579C243.31 58.0656 242.097 58.154 240.894 58.3226C240.282 45.9613 234.936 34.3082 225.962 25.775C216.988 17.2417 205.073 12.4816 192.684 12.4797C184.623 12.4738 176.691 14.4946 169.618 18.3557C165.106 12.6338 159.352 8.00914 152.791 4.8297C146.231 1.65027 139.033 -0.00107214 131.741 5.22242e-07C120.649 0.00263058 109.895 3.81901 101.287 10.8079C92.6786 17.7969 86.741 27.5324 84.4713 38.3788C81.7072 37.8895 78.9056 37.6415 76.0984 37.6377C66.286 37.6383 56.7067 40.6249 48.636 46.1998C40.5653 51.7746 34.3862 59.6732 30.9215 68.8437C29.8926 68.7218 28.8576 68.66 27.8215 68.6584C20.4428 68.6584 13.3663 71.5864 8.14872 76.7983C2.93118 82.0103 0 89.0792 0 96.4499C0 103.821 2.93118 110.89 8.14872 116.102C13.3663 121.313 20.4428 124.242 27.8215 124.242C32.892 124.255 37.8688 122.877 42.2091 120.258C51.2341 129.164 63.4124 134.153 76.0984 134.141C84.4298 134.145 92.6195 131.988 99.8659 127.881C105.366 137.371 113.268 145.25 122.778 150.727C132.289 156.204 143.074 159.087 154.051 159.087C163.821 159.094 173.456 156.814 182.184 152.432C190.913 148.049 198.493 141.685 204.316 133.849C208.159 135.779 212.401 136.785 216.703 136.787C223.27 136.78 229.622 134.452 234.636 130.216C239.65 125.98 243.003 120.109 244.1 113.641H244.524C251.903 113.641 258.98 110.713 264.197 105.501C269.415 100.289 272.346 93.2202 272.346 85.8495C272.346 82.1998 271.626 78.5859 270.228 75.2141C268.83 71.8423 266.781 68.7785 264.197 66.1979C261.614 63.6172 258.547 61.57 255.171 60.1734C251.796 58.7767 248.178 58.0579 244.524 58.0579Z" fill="#F5E4FF"/>
</svg>
