<svg width="278" height="125" viewBox="0 0 278 125" fill="none" xmlns="http://www.w3.org/2000/svg">
<path d="M259.202 55.9209C258.684 55.9209 258.166 55.9209 257.649 56.0012C254.752 51.8671 250.931 48.465 246.489 46.0648C242.047 43.6647 237.105 42.3328 232.058 42.1748C229.437 36.5778 225.274 31.8432 220.057 28.5256C214.841 25.2079 208.786 23.4447 202.602 23.4423C201.469 23.443 200.337 23.5026 199.21 23.6208C195.735 16.5339 190.34 10.5634 183.639 6.38786C176.938 2.21232 169.199 -0.00081105 161.302 2.22963e-07C152.939 -0.000209462 144.766 2.48117 137.816 7.12948C130.867 11.7778 125.456 18.3837 122.268 26.1095C119.464 26.7661 116.762 27.7983 114.235 29.1781C111.194 25.3213 107.318 22.2041 102.898 20.0611C98.4776 17.918 93.6284 16.805 88.7154 16.8057C81.2418 16.8075 73.9964 19.3799 68.1968 24.0906C62.3971 28.8014 58.3967 35.3635 56.8675 42.6743C53.2775 42.0129 49.6009 41.9677 45.9957 42.5405C41.5647 43.2551 37.3306 44.8815 33.5615 47.3169C29.7925 49.7522 26.5707 52.9433 24.1002 56.688C22.3639 56.1601 20.5595 55.8896 18.7446 55.8852C13.7732 55.8852 9.00545 57.8588 5.49016 61.3718C1.97487 64.8848 0 69.6495 0 74.6177C0 79.5858 1.97487 84.3505 5.49016 87.8635C9.00545 91.3765 13.7732 93.3501 18.7446 93.3501C20.5586 93.343 22.3622 93.0757 24.1002 92.5562C27.5476 97.7889 32.4351 101.914 38.1742 104.435C43.9133 106.956 50.2592 107.766 56.448 106.766C60.2435 106.153 63.9003 104.873 67.2484 102.984C70.9534 109.379 76.2758 114.688 82.682 118.378C89.0881 122.068 96.3526 124.01 103.747 124.009C110.329 124.014 116.82 122.477 122.701 119.523C128.582 116.569 133.689 112.28 137.612 106.998C140.202 108.299 143.06 108.977 145.958 108.978C149.041 108.982 152.077 108.222 154.795 106.766C162.425 113.296 172.142 116.881 182.188 116.873C188.22 116.877 194.182 115.585 199.671 113.086C205.159 110.587 210.046 106.938 214.001 102.386C219.117 105.539 225.012 107.204 231.023 107.194C236.249 107.191 241.397 105.926 246.03 103.508C250.662 101.09 254.642 97.59 257.631 93.3055C258.149 93.3501 258.666 93.3858 259.184 93.3858C264.155 93.3858 268.923 91.4122 272.438 87.8992C275.954 84.3862 277.929 79.6215 277.929 74.6533C277.929 69.6883 275.956 64.9263 272.445 61.4138C268.933 57.9013 264.17 55.9256 259.202 55.9209Z" fill="#F5E4FF"/>
</svg>
