<svg width="234" height="105" viewBox="0 0 234 105" fill="none" xmlns="http://www.w3.org/2000/svg">
<path d="M15.7628 46.9014C16.1986 46.9014 16.6344 46.9014 17.0702 46.9687C19.5082 43.5014 22.7245 40.648 26.4637 38.635C30.203 36.622 34.362 35.5049 38.6106 35.3724C40.8168 30.6782 44.3207 26.7072 48.7118 23.9247C53.1029 21.1421 58.1995 19.6633 63.4043 19.6613C64.358 19.6619 65.3109 19.7118 66.2594 19.811C69.1845 13.8672 73.7254 8.85963 79.3661 5.35756C85.0067 1.85549 91.5209 -0.000680235 98.1681 1.87001e-07C105.207 -0.000175678 112.087 2.08098 117.936 5.97956C123.786 9.87815 128.34 15.4186 131.024 21.8983C133.384 22.449 135.658 23.3147 137.785 24.4719C140.345 21.2373 143.607 18.6228 147.328 16.8254C151.049 15.028 155.13 14.0945 159.266 14.0951C165.557 14.0966 171.655 16.2541 176.537 20.2051C181.419 24.156 184.786 29.6597 186.073 35.7914C189.095 35.2366 192.19 35.1987 195.224 35.6792C198.954 36.2785 202.518 37.6426 205.69 39.6851C208.863 41.7276 211.575 44.4041 213.654 47.5448C215.116 47.102 216.634 46.8752 218.162 46.8715C222.347 46.8715 226.36 48.5267 229.319 51.4731C232.278 54.4195 233.94 58.4157 233.94 62.5826C233.94 66.7494 232.278 70.7456 229.319 73.692C226.36 76.6384 222.347 78.2937 218.162 78.2937C216.635 78.2877 215.117 78.0635 213.654 77.6278C210.752 82.0165 206.638 85.4764 201.808 87.5909C196.977 89.7053 191.635 90.3842 186.426 89.5458C183.231 89.0317 180.153 87.9577 177.335 86.3736C174.217 91.7371 169.737 96.1897 164.344 99.2848C158.952 102.38 152.837 104.009 146.613 104.007C141.073 104.011 135.609 102.723 130.659 100.245C125.709 97.7677 121.411 94.17 118.108 89.7403C115.929 90.8313 113.523 91.4001 111.083 91.4012C108.488 91.404 105.933 90.7665 103.645 89.5458C97.2225 95.0227 89.0431 98.0296 80.5871 98.0223C75.5102 98.0256 70.4919 96.9425 65.872 94.8462C61.2521 92.75 57.1385 89.6896 53.8099 85.8724C49.5032 88.5163 44.5416 89.9128 39.4821 89.9049C35.083 89.9019 30.7496 88.8413 26.8503 86.8132C22.951 84.7852 19.601 81.8497 17.0852 78.2562C16.6494 78.2937 16.2136 78.3236 15.7779 78.3236C11.5933 78.3236 7.58018 76.6683 4.62128 73.7219C1.66237 70.7755 6.10352e-05 66.7793 6.10352e-05 62.6125C6.10352e-05 58.4482 1.66029 54.4543 4.61595 51.5083C7.57162 48.5624 11.5809 46.9053 15.7628 46.9014Z" fill="white"/>
</svg>
